<?xml version="1.0" encoding="utf-8"?>
<!-- Generator: Adobe Illustrator 24.1.0, SVG Export Plug-In . SVG Version: 6.00 Build 0)  -->
<svg version="1.1" id="Laag_1" xmlns="http://www.w3.org/2000/svg" xmlns:xlink="http://www.w3.org/1999/xlink" x="0px" y="0px"
	 viewBox="0 0 850.4 209.8" style="enable-background:new 0 0 850.4 209.8;" xml:space="preserve">
<style type="text/css">
	.st0{fill:#F9C132;}
	.st1{fill:#F7931A;}
	.st2{fill:#FFFFFF;}
</style>
<path class="st0" d="M362.8,61l48.1,29.9l39.3-83.1c1.3-2.8,5.5-1.8,5.5,1.2v150.7c0,4.4-4.9,7.1-8.6,4.8l-47.9-29.8l-31.7,53.8
	c-1.5,2.6-5.4,1.6-5.6-1.4l-6.4-121.8C355.3,61.4,359.5,58.9,362.8,61z"/>
<path class="st0" d="M340.7,70.7c-0.2-0.4-0.5-0.6-0.5-0.8c0-0.2,0.4-0.4,0.6-0.6c0.2,0.2,0.5,0.4,0.5,0.6
	C341.3,70.2,341,70.4,340.7,70.7z"/>
<path class="st0" d="M52,138.5h12.6V91.1c0-2.7-1.6-4.1-4.3-4.1H51V62.8h31.7c9.1,0,14,4.5,14,11.3v3.3c0,1-0.2,2.3-0.2,2.3h0.4
	c5-7.8,14.8-19.2,31.7-19.2c10.9,0,21.2,4.9,26,18.8h0.4c5.4-10.7,17.7-18.8,33-18.8c17.1,0,31.5,9.9,31.5,37.5v40.6H232v24.3h-46.2
	v-59.2c0-7.4-1.4-12.6-7.8-12.6c-14.6,0-19.2,13.8-19.2,30.5v17.1h12.6V163h-46.2v-59.2c0-7.4-1.4-12.6-7.8-12.6
	c-15.3,0-19.2,16.3-19.2,32.4v15.1h12.6V163H52V138.5z"/>
<path class="st0" d="M254.2,176.6c7,0,13.8-1.9,16.5-8.2l0.4-1l-33-80.4h-9.7l-1.5-24.3h55V87H272l12.2,37.1c1.9,6,2.3,13,2.3,13
	h0.8c0,0,1-7,3.1-13L302.2,87h-9.1V62.8h51.8l1.3,24.3h-11.6l-32.2,84.5c-9.1,23.9-27.2,32-46.6,32c-17.3,0-28.5-7.8-28.5-7.8
	l10.3-23.9C237.7,171.9,243.5,176.6,254.2,176.6z"/>
<path class="st0" d="M624.3,60.5c19.2,0,25.6,9.9,25.6,9.9h0.4c0,0-0.2-2.7-0.2-6.4V48.2h-13.6V24h47.2v110.3c0,2.7,1.1,3.9,4.3,4.3
	l6.1,0.7l1.2,23.6h-28.9c-9.7,0-13.4-5.6-13.4-10.5v-0.6c0-1.7,0.4-3.1,0.4-3.1H653c0,0-7.6,16.5-30.9,16.5
	c-26.6,0-44.1-21.4-44.1-52.2C578.1,81,596.8,60.5,624.3,60.5z M631.3,137.4c10.1,0,19.8-7.6,19.8-23.7c0-13.2-6.4-24.9-19.2-24.9
	c-11.1,0-20,8.5-20,24.1C611.9,127.5,619.9,137.4,631.3,137.4z"/>
<path class="st0" d="M747.2,60.5c29.9,0,46.6,20.6,46.6,48.4c0,3.3-0.8,10.1-0.8,10.1h-63.5c2.5,12.8,12.6,18.4,23.3,18.4
	c14.8,0,28.2-9.5,28.2-9.5l12.2,23.3c0,0-16.1,14-43.1,14c-35.7,0-55-25.8-55-52.4C695.1,83.4,714.9,60.5,747.2,60.5z M759,100.5
	c0-8-5.2-14.8-12.6-14.8c-9.7,0-14.4,7-16.1,14.8H759z"/>
<g>
	<path class="st1" d="M568.8,125.8c-7.2,28.7-36.2,46.2-65,39c-28.7-7.2-46.2-36.2-39-65c7.2-28.7,36.2-46.2,65-39
		C558.5,68,576,97.1,568.8,125.8z"/>
	<path class="st2" d="M539.8,105.3c1.1-7.1-4.4-11-11.8-13.5l2.4-9.7l-5.9-1.5l-2.3,9.4c-1.5-0.4-3.1-0.7-4.7-1.1l2.4-9.5l-5.9-1.5
		l-2.4,9.7c-1.3-0.3-2.5-0.6-3.8-0.9l0,0l-8.1-2l-1.6,6.3c0,0,4.4,1,4.3,1.1c2.4,0.6,2.8,2.2,2.7,3.4l-2.7,11c0.2,0,0.4,0.1,0.6,0.2
		c-0.2,0-0.4-0.1-0.6-0.2l-3.8,15.4c-0.3,0.7-1,1.8-2.7,1.4c0.1,0.1-4.3-1.1-4.3-1.1l-2.9,6.7l7.7,1.9c1.4,0.4,2.8,0.7,4.2,1.1
		l-2.4,9.8l5.9,1.5l2.4-9.7c1.6,0.4,3.2,0.8,4.7,1.2l-2.4,9.6l5.9,1.5l2.4-9.8c10,1.9,17.6,1.1,20.7-7.9c2.6-7.3-0.1-11.5-5.4-14.3
		C536.2,113.1,539.1,110.6,539.8,105.3L539.8,105.3z M526.4,124.2c-1.8,7.3-14.1,3.4-18.1,2.4l3.2-12.9
		C515.5,114.6,528.3,116.6,526.4,124.2z M528.2,105.2c-1.7,6.6-11.9,3.3-15.2,2.4l2.9-11.7C519.2,96.8,529.9,98.3,528.2,105.2z"/>
</g>
</svg>
