<?xml version="1.0" encoding="utf-8"?>
<!-- Generator: Adobe Illustrator 24.0.2, SVG Export Plug-In . SVG Version: 6.00 Build 0)  -->
<svg version="1.1" id="Laag_1" xmlns="http://www.w3.org/2000/svg" xmlns:xlink="http://www.w3.org/1999/xlink" x="0px" y="0px"
	 viewBox="0 0 850.4 209.8" style="enable-background:new 0 0 850.4 209.8;" xml:space="preserve">
<style type="text/css">
	.st0{fill:#F9C132;}
	.st1{fill:#FFFFFF;}
</style>
<g>
	<path class="st0" d="M362.8,61l48.1,29.9l39.3-83.1c1.3-2.8,5.5-1.8,5.5,1.2v150.7c0,4.4-4.9,7.1-8.6,4.8l-47.9-29.8l-31.7,53.8
		c-1.5,2.6-5.4,1.6-5.6-1.4l-6.4-121.8C355.3,61.4,359.5,58.9,362.8,61z"/>
	<path class="st0" d="M340.7,70.7c-0.2-0.4-0.5-0.6-0.5-0.8c0-0.2,0.4-0.4,0.6-0.6c0.2,0.2,0.5,0.4,0.5,0.6
		C341.3,70.2,341,70.4,340.7,70.7z"/>
	<path class="st0" d="M52,138.5h12.6V91.1c0-2.7-1.6-4.1-4.3-4.1h-9.3V62.8h31.7c9.1,0,14,4.5,14,11.3v3.3c0,1-0.2,2.3-0.2,2.3h0.4
		c5-7.8,14.8-19.2,31.7-19.2c10.9,0,21.2,4.9,26,18.8h0.4c5.4-10.7,17.7-18.8,33-18.8c17.1,0,31.5,9.9,31.5,37.5v40.6H232v24.3
		h-46.2v-59.2c0-7.4-1.4-12.6-7.8-12.6c-14.6,0-19.2,13.8-19.2,30.5v17.1h12.6v24.3h-46.2v-59.2c0-7.4-1.4-12.6-7.8-12.6
		c-15.3,0-19.2,16.3-19.2,32.4v15.1h12.6v24.3H52V138.5z"/>
	<path class="st0" d="M254.2,176.6c7,0,13.8-1.9,16.5-8.2l0.4-1l-33-80.4h-9.7l-1.5-24.3h55v24.3H272l12.2,37.1c1.9,6,2.3,13,2.3,13
		h0.8c0,0,1-7,3.1-13l11.8-37.1h-9.1V62.8h51.8l1.3,24.3h-11.6l-32.2,84.5c-9.1,23.9-27.2,32-46.6,32c-17.3,0-28.5-7.8-28.5-7.8
		l10.3-23.9C237.7,171.9,243.5,176.6,254.2,176.6z"/>
	<path class="st0" d="M628.3,60.5c19.2,0,25.6,9.9,25.6,9.9h0.4c0,0-0.2-2.7-0.2-6.4V48.2h-13.6V24h47.2v110.3
		c0,2.7,1.1,3.9,4.3,4.3l6.1,0.7l1.2,23.6h-28.9c-9.7,0-13.4-5.6-13.4-10.5v-0.6c0-1.7,0.4-3.1,0.4-3.1h-0.4c0,0-7.6,16.5-30.9,16.5
		c-26.6,0-44.1-21.4-44.1-52.2C582.1,81,600.8,60.5,628.3,60.5z M635.3,137.4c10.1,0,19.8-7.6,19.8-23.7c0-13.2-6.4-24.9-19.2-24.9
		c-11.1,0-20,8.5-20,24.1C615.9,127.5,623.9,137.4,635.3,137.4z"/>
	<path class="st0" d="M751.2,60.5c29.9,0,46.6,20.6,46.6,48.4c0,3.3-0.8,10.1-0.8,10.1h-63.5c2.5,12.8,12.6,18.4,23.3,18.4
		c14.8,0,28.2-9.5,28.2-9.5l12.2,23.3c0,0-16.1,14-43.1,14c-35.7,0-55-25.8-55-52.4C699.1,83.4,718.9,60.5,751.2,60.5z M763,100.5
		c0-8-5.2-14.8-12.6-14.8c-9.7,0-14.4,7-16.1,14.8H763z"/>
	<g>
		<g>
			<path class="st0" d="M518.5,59.2c30.2,0,54.2,22.4,54.2,53.9c0,31.3-24.1,53.1-54.1,53.1s-54.1-21.9-54.1-53.1
				C464.5,81.6,488.7,59.2,518.5,59.2z M518.6,137.2c11.7,0,21.7-9.1,21.7-24.1c0-15.1-10-24.7-21.7-24.7
				c-11.7,0-21.7,9.5-21.7,24.7C496.9,128,506.9,137.2,518.6,137.2z"/>
		</g>
		<g>
			<path class="st0" d="M466.2,112.8c0,28.9,23.4,53.4,52.3,53.4s52.3-24.5,52.3-53.4s-23.3-53.6-52.2-53.6S466.2,83.9,466.2,112.8z
				"/>
			<g>
				<path class="st1" d="M509.6,151.9c0.6-2.7,1.2-4.9,1.7-7.2c0.1-0.5,0.3-0.9,0.4-1.4c0.8-3.3,0.7-3.4-2.6-4
					c-0.4-0.1-0.8-0.1-1.4-0.1c-0.6,2.4-1.2,4.6-1.8,6.9c-0.2,0.9-0.4,1.9-0.7,2.8c-0.3,1.1-0.9,1.7-2.1,1.4c-1.9-0.5-3.8-1-5.9-1.5
					c0.3-4,1.8-7.6,2.4-11.6c-4.5-1.7-9.3-2.2-13.9-3.9c0.1-0.5,0-1,0.2-1.4c0.9-2,1.9-3.9,2.8-5.8c0.5-1,1.2-1.4,2.3-1.1
					c0.9,0.2,1.9,0.5,2.8,0.7c2.4,0.6,3.1,0.1,3.8-2.3c1-3.9,2-7.9,2.9-11.9c1.4-5.7,2.8-11.3,4.2-17c0.1-0.5,0.2-0.9,0.3-1.4
					c0.4-2.1-0.3-3.4-2.3-4c-1.4-0.4-2.9-0.7-4.4-1.1c-1.5-0.4-1.6-0.7-1.3-2.2c0.3-1.6,0.7-3.1,1.2-4.6c0.5-1.7,0.7-1.8,2.4-1.4
					c3.2,0.8,6.4,1.6,9.5,2.3c0.8,0.2,1.7,0.4,2.8,0.6c1.6-3.6,1.8-7.6,3.3-11.3c2.5,0.1,4.8,1,7.4,1.7c-0.1,1-0.2,1.8-0.4,2.6
					c-0.6,2.5-1.1,5-1.8,7.4c-0.3,1.2,0.1,1.8,1.2,2.1c1,0.2,2,0.4,3.2,0.6c1-3.9,1.9-7.5,2.9-11.5c2.4,0.6,4.5,1,6.5,1.6
					c0.9,0.3,1.1,1,0.9,1.9c-0.6,2.5-1.2,5-1.8,7.4c-0.2,0.8-0.4,1.7-0.6,2.5c1.9,0.8,3.7,1.5,5.4,2.4c3.9,2,6.7,5.2,8.1,9.4
					c1.6,5-0.3,10.8-4.6,13.8c-1.1,0.8-2.3,1.4-3.5,2.2c0.7,0.8,1.4,1.4,2,2.1c5.5,5.9,5.9,14,0.9,19.8c-3.2,3.7-7.5,5.4-12.3,5.7
					c-2.6,0.2-5.3,0.1-7.8-0.7c-0.4-0.1-0.9-0.1-1.7-0.2c-0.4,1.3-0.8,2.6-1.1,3.9c-0.5,2-1,4-1.5,6c-0.2,0.9-0.6,1.6-1.6,1.3
					C514.1,153.1,512,152.5,509.6,151.9z M509.9,129.7c2.9,0.7,5.3,1.4,7.8,2c1.1,0.3,2.2,0.5,3.3,0.6c2.4,0.2,4.6-0.2,6.7-1.3
					c3.2-1.8,4.2-5.5,2.2-8.6c-1.2-1.8-2.7-3.2-4.6-4c-3.7-1.6-7.6-2.2-11.7-3.2C512.3,120,511.2,124.6,509.9,129.7z M515.9,107.1
					c3.1,1,6.1,1.8,9.3,2.1c1.7,0.2,3.3-0.3,4.8-1.1c3.2-1.7,4.1-5.3,2.2-8.4c-1.3-2.1-3.2-3.3-5.5-4c-2-0.6-4-0.9-6-1.6
					c-1.8-0.6-2.2,0-2.5,1.5c-0.8,3.2-1.6,6.3-2.3,9.5C515.8,105.7,515.9,106.3,515.9,107.1z"/>
			</g>
		</g>
	</g>
</g>
</svg>
